<svg xmlns="http://www.w3.org/2000/svg">

    <symbol id="burger" viewBox="0 0 20 14">
        <path d="M0 1H20" stroke="#D41443"/>
        <path d="M0 7H20" stroke="#D41443"/>
        <path d="M0 13H20" stroke="#D41443"/>
    </symbol>
    <symbol id="arr-right" viewBox="0 0 32 32">
    <path d="M19.414 27.414l10-10c0.781-0.781 0.781-2.047 0-2.828l-10-10c-0.781-0.781-2.047-0.781-2.828 0s-0.781 2.047 0 2.828l6.586 6.586h-19.172c-1.105 0-2 0.895-2 2s0.895 2 2 2h19.172l-6.586 6.586c-0.39 0.39-0.586 0.902-0.586 1.414s0.195 1.024 0.586 1.414c0.781 0.781 2.047 0.781 2.828 0z"></path>
    </symbol>

    <symbol id=">" viewBox="0 0 6 10">
        <path d="M1 1L5 5L1 9"/>
    </symbol>
    <!-- width="256" height="32" -->
    <symbol id="group" viewBox="0 0 256 32">
        <path fill="#c7133e"
            d="M144 16a16 16 0 1 1-32 0 16 16 0 0 1 32 0zM32 16a16 16 0 1 1-32 0 16 16 0 0 1 32 0zM256 16a16 16 0 1 1-32 0 16 16 0 0 1 32 0z" />
    </symbol>
    <!-- width="139" height="32" -->
    <symbol viewBox="0 0 139 32">
        <path id="s-group" fill="#fff"
            d="M85.33 16a16 16 0 1 1-32 0 16 16 0 0 1 32 0zM32 16a16 16 0 1 1-32 0 16 16 0 0 1 32 0zM138.67 16a16 16 0 1 1-32 0 16 16 0 0 1 32 0z" />
    </symbol>
    <!-- width="43" height="32" -->
    <symbol id="quote" viewBox="0 0 43 32">
        <path fill="#e1e1e1"
            d="M32.01 0c1.93 0 3.75.52 5.47 1.56s3.1 2.54 4.18 4.49c1.03 1.95 1.54 4.25 1.54 6.9s-.64 5.22-1.93 7.73c-.43.91-1.2 2.08-2.31 3.52a63.37 63.37 0 0 1-3.22 3.7L31.7 32l-2.89-4.81a22.03 22.03 0 0 0 5.34-4.69c1.54-1.82 2.31-3.49 2.31-5 0-.78-.17-1.41-.51-1.89a8.36 8.36 0 0 1-5.02 1.63 6.6 6.6 0 0 1-3.8-1.24 8.56 8.56 0 0 1-2.95-3.12 7.37 7.37 0 0 1-1.16-3.9c0-1.52.45-2.97 1.35-4.36.86-1.39 2-2.52 3.41-3.38A8.13 8.13 0 0 1 32.02 0zM8.94 0c1.93 0 3.75.52 5.46 1.56s3.1 2.54 4.18 4.49a14.58 14.58 0 0 1 1.54 6.9c0 1.86-.23 3.53-.7 5a17.3 17.3 0 0 1-2.45 4.75 36.67 36.67 0 0 1-3.15 3.9c-.98 1.09-2.7 2.89-5.14 5.4l-2.9-4.81a22.03 22.03 0 0 0 5.34-4.69c1.55-1.82 2.32-3.49 2.32-5 0-.78-.17-1.41-.52-1.9a8.36 8.36 0 0 1-5.01 1.64A6.6 6.6 0 0 1 4.1 16a8.56 8.56 0 0 1-2.95-3.12A7.37 7.37 0 0 1 0 8.98C0 7.46.43 6 1.3 4.62s1.99-2.52 3.4-3.38A8.13 8.13 0 0 1 8.94 0z" />
    </symbol>
    <!-- width="26" height="32" -->
    <symbol id="ret-arrow" viewBox="0 0 26 32">
        <path fill="none" stroke="#d41443" stroke-linejoin="round" stroke-linecap="round" stroke-width="6.4"
            d="M5.17 3.2 19.34 16 5.17 28.8" />
    </symbol>
    <!-- width="32" height="32" -->
    <symbol id="telegram" viewBox="0 0 33 32">
        <path d="M32.23 16a16 16 0 1 1-32 0 16 16 0 0 1 32 0z" />
        <path fill="#fff"
            d="m13.1 18.38-.32 4.16c.46 0 .66-.18.9-.4l2.12-1.9 4.42 3.02c.8.42 1.38.2 1.6-.7l2.9-12.67c.25-1.11-.44-1.55-1.23-1.28L6.46 14.7c-1.16.42-1.15 1.02-.2 1.3l4.35 1.26 10.12-5.9c.47-.3.9-.14.55.16l-8.18 6.86z" />
    </symbol>
    <!-- width="32" height="32" -->
    <symbol id="github" viewBox="0 0 32 32">
        <path d="M32 16a16 16 0 1 1-32 0 16 16 0 0 1 32 0z" />
        <path fill="#fff"
            d="M16 6.59A9.45 9.45 0 0 0 6.59 16c0 4.41 3.1 8.42 7.2 9.41V22.3c-.4.09-.78.09-1.2-.03-.55-.17-1-.54-1.34-1.1-.21-.36-.59-.75-.98-.73l-.1-1.1c.85-.07 1.6.53 2.03 1.26.2.33.42.52.71.6.28.1.58.05.93-.07.08-.7.4-.96.65-1.33-2.46-.37-3.43-1.67-3.82-2.7a4.32 4.32 0 0 1 .67-4.13c.02-.03.05-.08.04-.12-.42-1.26.09-2.3.1-2.4.49.13.57-.15 2.1.78l.26.16c.11.06.08.02.19.02a7.98 7.98 0 0 1 1.97-.28c.67 0 1.34.1 2 .28l.09.01.07-.03c1.91-1.16 1.85-.78 2.36-.95.01.11.52 1.17.1 2.41-.05.17 1.66 1.74.71 4.26-.39 1.02-1.36 2.33-3.81 2.7.31.47.69.73.69 1.71v3.9c4.1-1 7.2-5 7.2-9.42A9.45 9.45 0 0 0 16 6.59z" />
    </symbol>
    <!-- width="32" height="32" -->
    <symbol id="facebook" viewBox="0 0 33 32">
        <path d="M16.47 32a16 16 0 1 0 0-32 16 16 0 0 0 0 32z" />
        <path fill="#fff"
            d="M20.92 15.98H18.3v9.62h-3.96v-9.62h-1.88V12.6h1.88v-2.19c0-1.56.74-4.01 4-4.01l2.92.01V9.7h-2.13c-.34 0-.83.18-.83.92v2h2.95l-.34 3.37z" />
    </symbol>
    <!-- width="32" height="32" -->
    <symbol id="home" viewBox="0 0 35 32">
        <path fill="#d31342"
            d="M32.64 15.4c.6-.65.54-1.65-.13-2.22L17.74.43a1.86 1.86 0 0 0-2.4.02L.52 13.85c-.66.6-.7 1.6-.08 2.23l.38.38c.61.63 1.6.7 2.22.17l1.1-.98v14.33c0 .87.73 1.59 1.62 1.59h5.78a1.6 1.6 0 0 0 1.61-1.6V19.96h7.37v10.03c-.01.87.62 1.59 1.52 1.59h6.12a1.6 1.6 0 0 0 1.61-1.6V15.86l.68.6c.38.32 1.17.06 1.77-.6l.42-.45z" />
    </symbol>
    <!-- width="32" height="32" -->
    <symbol id="dot" viewBox="0 0 35 32">
        <path fill="#d9d9d9" d="M33.05 16a16 16 0 1 1-32 0 16 16 0 0 1 32 0z" />
    </symbol>
    <!-- width="32" height="32" -->
    <symbol id="x" viewBox="0 0 32 32">
        <path stroke="#fff" stroke-width="2" d="m2.52 2 26.96 28M2 29.48 30 2.52" />
    </symbol>
    <!-- width="32" height="32" -->
    <symbol id="burgir" viewBox="0 0 46 32">
        <path stroke="#d41443" stroke-width="2.29" d="M0 2.29h45.71M0 16h45.71M0 29.71h45.71" />
    </symbol>
    <!-- width="139" height="32" -->
    <symbol viewBox="0 0 139 32">
        <path id="s-group" fill="#fff"
            d="M85.33 16a16 16 0 1 1-32 0 16 16 0 0 1 32 0zM32 16a16 16 0 1 1-32 0 16 16 0 0 1 32 0zM138.67 16a16 16 0 1 1-32 0 16 16 0 0 1 32 0z" />
    </symbol>
</svg>